<svg xmlns="http://www.w3.org/2000/svg" xmlns:xlink="http://www.w3.org/1999/xlink" id="Layer_1" x="0px" y="0px" viewBox="0 0 315 59" style="enable-background:new 0 0 315 59;" xml:space="preserve">
<style type="text/css">
	.st0{fill:#FED500;}
	.st1{fill:#00A1FE;}
	.st2{enable-background:new    ;}
	.st3{fill:#FFD600;}
	.st4{fill:#231F20;}
	.st5{font-family:'BerlinSansFB-Reg';}
	.st6{font-size:29.84px;}
	.st7{fill:#00A2FF;}
	.st8{fill:#6F6F6F;}
</style>
<path class="st0" d="M34.3,48.6c0-0.5-0.1-1-0.2-1.5c-0.3-2.2-1.2-4.3-2.4-6.2c-1.6-2.1-3.9-3.5-6.5-3.9h-8.4  c-0.9,0-1.8-0.1-2.7-0.3c-1.8-0.4-3.4-1-5-1.9c-3-1.7-5.2-4.6-5.8-8c-0.3-1.5-0.4-3-0.3-4.5c0.1-1.5,0.4-3,1.1-4.4  c1-2.3,2.7-4.2,4.8-5.4c1.6-1.1,3.5-1.8,5.4-2.2h19.5l0.3,0.5c0.1,0.1,0.1,0.2,0.1,0.3c-0.3,1.5-0.7,2.9-1.4,4.3  c-1.2,2.2-3.1,3.7-5.5,4.4c-0.6,0.2-1.3,0.3-2,0.3h-9.6c-1.1-0.1-2.2,0.6-2.6,1.6c-0.6,1.3-0.5,2.8,0.4,3.9c0.6,0.7,1.4,1.2,2.3,1.4  h9.8c0.8,0,1.6,0.1,2.4,0.3c2.2,0.6,4.2,1.7,5.9,3.2c1.5,1.6,2.6,3.4,3.2,5.5c0.4,1.2,0.7,2.5,0.7,3.8c0,0.5,0,1-0.1,1.5  c-0.1,1.2-0.3,2.3-0.7,3.4c-0.4,1.1-0.9,2.1-1.6,3L34.3,48.6z"></path>
<path class="st1" d="M60.6,10.7h10c0.2,0,0.2,0,0.2,0.2c0,3.3-1.8,6.4-4.8,7.9c-1.2,0.6-2.4,1-3.7,1.2H42.2C42,20,42,20,42,19.7  c0.2-1.3,0.5-2.5,1.1-3.7c1.3-2.9,4-4.9,7.1-5.3H60.6z"></path>
<path class="st1" d="M59.2,40.3h10c0.2,0,0.2,0.1,0.2,0.3c0,3.4-2,6.4-5,7.9c-1.1,0.6-2.3,1-3.6,1.2h-20c-0.3,0-0.3,0-0.2-0.2  c0.1-1.9,0.8-3.8,2-5.3c1.5-2.1,3.8-3.5,6.4-3.8h10.2V40.3z"></path>
<path class="st1" d="M50.4,35h-6c-0.2,0-0.2,0-0.2-0.3c0.2-2,1-4,2.2-5.6c1.5-1.9,3.7-3.1,6.1-3.4H65c0.2,0,0.2,0,0.2,0.2  c0,3.4-2,6.5-5,8c-1.1,0.6-2.3,1-3.5,1.1H50.4z"></path>
<path class="st0" d="M26.1,52.3c-3-0.1-5.5-2.6-5.4-5.6c0.1-3,2.6-5.5,5.6-5.4c3,0.1,5.4,2.5,5.4,5.5c0,3-2.5,5.5-5.5,5.5  C26.2,52.3,26.1,52.3,26.1,52.3z"></path>
<g class="st2">
	<path class="st3" d="M91,12c-0.2,0.3-0.5,0.8-0.8,1.5c-0.1,0.3-0.3,0.7-0.6,1.3c-0.1,0.1-0.1,0.1-0.2,0.1c0,0-0.5-0.2-1.4-0.5   c-0.9-0.3-1.7-0.5-2.3-0.5c-1.8,0-2.7,0.8-2.7,2.4c0,0.9,0.6,1.6,1.9,2.3c2.1,1.1,3.3,1.7,3.5,1.9c1.3,1,1.9,2.4,1.9,4.1   c0,2.2-0.9,3.9-2.6,5.1c-1.5,1.1-3.4,1.7-5.7,1.7c-1,0-1.6-0.1-1.7-0.3c0-0.4-0.1-0.9-0.3-1.6c-0.1-0.3-0.2-0.7-0.4-1.3   c0-0.1,0-0.2,0-0.2c0-0.1,0.1-0.2,0.2-0.2c0.2,0,0.6,0,1.1,0.1c0.5,0,0.8,0.1,1.1,0.1c3,0,4.5-1,4.5-2.9c0-1-0.6-1.8-1.8-2.5   c-2.2-1.3-3.3-1.9-3.4-2c-1.2-1-1.8-2.3-1.8-4c0-1.8,0.6-3.3,1.8-4.3c1.2-1,2.7-1.6,4.5-1.6c0.8,0,1.7,0.1,2.7,0.4   c1.1,0.3,1.9,0.6,2.5,1C90.9,11.9,90.9,11.9,91,12z"></path>
	<path class="st3" d="M112.5,20.8c0,2.9-0.9,5.4-2.8,7.4c-1.9,2.2-4.3,3.2-7.2,3.2c-2.9,0-5.3-1.1-7.2-3.2c-1.8-2.1-2.8-4.6-2.8-7.5   c0-2.9,0.9-5.4,2.8-7.4c1.9-2.2,4.3-3.2,7.1-3.2c2.8,0,5.2,1.1,7.2,3.2C111.6,15.4,112.5,17.9,112.5,20.8z M109,20.7   c0-1.9-0.6-3.6-1.8-5c-1.2-1.5-2.8-2.2-4.7-2.2c-1.9,0-3.4,0.8-4.6,2.3c-1.2,1.4-1.7,3.1-1.7,5c0,1.9,0.6,3.6,1.7,5   c1.2,1.5,2.8,2.3,4.6,2.3c1.9,0,3.4-0.8,4.7-2.3C108.4,24.3,109,22.7,109,20.7z"></path>
	<path class="st3" d="M128.9,13.5c0,0.2-0.1,0.3-0.3,0.3c-0.8,0-2,0-3.7-0.1c-1.6-0.1-2.9-0.1-3.7-0.1l-1.1,0c-0.7,0-1,0-1.1,0   c-0.2,0.1-0.3,0.4-0.3,0.9v3.5c0,0.7,0.1,1,0.4,1c0.9,0,2.4,0,4.3-0.1c1.9-0.1,3.3-0.1,4.3-0.1c0.2,0,0.3,0.1,0.3,0.2   c0,0.2,0,0.4,0,0.7c0,0.3,0,0.6,0,0.7c0,0.2,0,0.4,0,0.8s0,0.6,0,0.8c0,0.1-0.1,0.2-0.3,0.2c-0.7,0-1.7,0-3.1-0.1   c-1.4,0-2.4-0.1-3.1-0.1c-1.3,0-2,0-2.1,0c-0.4,0-0.7,0.2-0.7,0.5c0,0.9,0,2.2,0.1,3.9c0,1.7,0.1,3.1,0.1,3.9   c0,0.3-0.1,0.4-0.3,0.4c-0.2,0-0.5,0-0.9-0.1c-0.4,0-0.7-0.1-0.9-0.1c-0.2,0-0.4,0-0.8,0c-0.3,0-0.6,0-0.8,0   c-0.2,0-0.4-0.1-0.4-0.3c0-1.1,0-2.7,0.1-4.9c0.1-2.2,0.1-3.8,0.1-4.9c0-1-0.1-4.3-0.3-9.8V11c0-0.2,0.1-0.3,0.4-0.3   c0.1,0,0.7,0,1.9,0c1.5,0,2.9,0,4.2,0c1.8,0,4-0.1,6.7-0.3c0.4,0,0.6,0.1,0.6,0.5c0,0.3,0,0.7,0.1,1.2   C128.8,12.8,128.9,13.3,128.9,13.5z"></path>
	<path class="st3" d="M144.3,13.3c0,0.3-0.1,0.4-0.3,0.4c-0.3,0-2-0.1-5.2-0.2c-0.1,3-0.1,5.3-0.1,7.1c0,1.1,0,2.8,0.1,5   c0.1,2.2,0.1,3.9,0.1,5c0,0.2-0.1,0.3-0.4,0.3c-0.2,0-0.4,0-0.8,0s-0.6,0-0.8,0c-0.2,0-0.4,0-0.8,0s-0.6,0-0.8,0   c-0.2,0-0.4-0.1-0.4-0.4c0-1.1,0-2.8,0.1-5s0.1-3.9,0.1-5c0-1.7-0.1-4.1-0.2-7.1c-2.5,0.2-4.3,0.2-5.5,0.2c-0.1,0-0.2,0-0.2-0.1   c0-0.2,0-0.4,0.1-0.8c0.1-0.4,0.2-0.7,0.2-0.8c0-0.3,0.1-0.8,0.2-1.4c0-0.1,0.1-0.2,0.2-0.2l0.2,0c3.4,0.2,5.7,0.3,6.8,0.3   c1,0,2.6-0.1,4.8-0.2c1.5-0.1,2.1-0.1,1.9-0.1c0.3,0,0.4,0.1,0.4,0.3c0-0.1,0,0.4,0,1.4c0,0.1,0,0.3,0,0.6S144.3,13.2,144.3,13.3z"></path>
</g>
<text transform="matrix(1 0 0 1 144.6 31)" class="st4 st5 st6"> </text>
<g class="st2">
	<path class="st7" d="M167.4,28.1c0,0.2,0,0.4-0.1,0.7c-0.1,0.4-0.1,0.6-0.2,0.7c0,0.3-0.1,0.9-0.2,1.5c0,0.2-0.2,0.3-0.4,0.3   c-0.1,0-0.3,0-0.6-0.1c-1.2-0.2-3-0.3-5.6-0.3c-0.7,0-1.8,0-3.2,0.1c-1.4,0-2.5,0.1-3.2,0.1c-0.3,0-0.5-0.1-0.5-0.4   c0-1.1,0.1-2.7,0.2-4.9s0.2-3.8,0.2-4.9c0-1.1-0.1-3.2-0.2-6.2c0-0.8-0.1-1.9-0.2-3.5l0-0.2c0-0.2,0.1-0.3,0.4-0.3   c0.7,0,1.7,0,3.1,0.1s2.4,0.1,3.1,0.1c0.7,0,1.6,0,2.9-0.1s2.3-0.1,2.9-0.1c0.5,0,0.7,0.1,0.7,0.4c0.2,1.3,0.3,2.1,0.3,2.4   c0,0.2-0.1,0.3-0.3,0.3c-0.8,0-2.1,0-3.8-0.1c-1.7-0.1-2.9-0.1-3.8-0.1c-0.8,0-1.3,0.1-1.5,0.3c-0.2,0.2-0.3,0.7-0.3,1.6v2.2   c0,0.6,0,0.9,0,1c0.1,0.3,0.3,0.5,0.8,0.5c0.1,0,0.3,0,0.5,0c0.2,0,0.4,0,0.5,0c1.9,0,3.6,0,5.1-0.1c0.6,0,1.3-0.1,2.1-0.1   c0.2,0,0.3,0.1,0.3,0.3c0,0.3,0,0.8-0.1,1.4c-0.1,0.6-0.1,1.1-0.1,1.4c0,0.2-0.1,0.3-0.4,0.3c-0.1,0-0.5,0-1.3-0.1   c-0.5-0.1-1.8-0.1-3.7-0.1c-1.6,0-2.6,0-3,0.1c-0.4,0-0.6,0.2-0.7,0.6c0-0.1,0,0.3,0,1.1v2.2c0,1,0.2,1.6,0.5,1.9   c0.2,0.2,0.8,0.3,1.8,0.3l1.6,0c0.7,0,2.6-0.1,5.7-0.3l0.2,0C167.3,27.7,167.4,27.8,167.4,28.1z"></path>
	<path class="st7" d="M188,10.9c0,1.1,0,2.8-0.1,5.1c-0.1,2.3-0.1,3.9-0.1,5.1c0,1.1,0,2.6,0,4.8c0,2.1,0,3.7,0,4.8   c0,0.3-0.1,0.5-0.4,0.5c-0.1,0-0.4,0-0.7,0c-0.3,0-0.5,0-0.7,0c-0.2,0-0.4,0-0.7,0c-0.3,0-0.6,0-0.7,0c-0.2,0-0.4-0.2-0.6-0.5   c-2.1-2.8-5.3-7-9.5-12.6c-0.7-0.9-1-1.3-1.2-1.4c-0.1,0-0.1,0.2-0.1,0.6c0,1.5,0,3.7,0.1,6.7c0,3,0.1,5.2,0.1,6.7   c0,0.3-0.1,0.5-0.3,0.5c-0.2,0-0.4,0-0.8,0s-0.6,0-0.8,0c-0.2,0-0.4,0-0.8,0s-0.6,0-0.8,0c-0.2,0-0.4-0.1-0.4-0.3   c0-1.1,0.1-2.7,0.2-4.8c0.1-2.2,0.2-3.8,0.2-4.8c0-1.2,0-3.3-0.1-6.4c0-0.8-0.1-2-0.1-3.6l0-0.2c0-0.1,0.1-0.2,0.3-0.2   c0.6,0,1.1,0,1.5-0.1c0.1,0,0.4,0,0.8-0.1c0.3-0.1,0.6-0.1,0.8-0.1c0.1,0,0.2,0.1,0.5,0.4c2.2,3.1,5.7,7.6,10.3,13.7   c0.2,0.3,0.4,0.5,0.6,0.7c0.1-0.4,0.1-1.3,0.1-2.8c0-1.3,0-3.2-0.1-5.7c-0.1-2.5-0.1-4.4-0.1-5.7c0-0.3,0.1-0.5,0.3-0.5   c0.2,0,0.4,0,0.8,0s0.6,0,0.8,0c0.2,0,0.5,0,0.8,0c0.4,0,0.6,0,0.8,0C187.9,10.6,188,10.7,188,10.9z"></path>
	<path class="st7" d="M204.6,13.3c0,0.3-0.1,0.4-0.3,0.4c-0.3,0-2-0.1-5.2-0.2c-0.1,3-0.1,5.3-0.1,7.1c0,1.1,0,2.8,0.1,5   c0.1,2.2,0.1,3.9,0.1,5c0,0.2-0.1,0.3-0.4,0.3c-0.2,0-0.4,0-0.8,0s-0.6,0-0.8,0c-0.2,0-0.4,0-0.8,0s-0.6,0-0.8,0   c-0.2,0-0.4-0.1-0.4-0.4c0-1.1,0-2.8,0.1-5c0.1-2.2,0.1-3.9,0.1-5c0-1.7-0.1-4.1-0.2-7.1c-2.5,0.2-4.3,0.2-5.5,0.2   c-0.1,0-0.2,0-0.2-0.1c0-0.2,0-0.4,0.1-0.8c0.1-0.4,0.2-0.7,0.2-0.8c0-0.3,0.1-0.8,0.2-1.4c0-0.1,0.1-0.2,0.2-0.2l0.2,0   c3.4,0.2,5.7,0.3,6.8,0.3c1,0,2.6-0.1,4.8-0.2c1.5-0.1,2.1-0.1,1.9-0.1c0.3,0,0.4,0.1,0.4,0.3c0-0.1,0,0.4,0,1.4c0,0.1,0,0.3,0,0.6   S204.6,13.2,204.6,13.3z"></path>
	<path class="st7" d="M220.2,28.1c0,0.2,0,0.4-0.1,0.7c-0.1,0.4-0.1,0.6-0.2,0.7c0,0.3-0.1,0.9-0.2,1.5c0,0.2-0.2,0.3-0.4,0.3   c-0.1,0-0.3,0-0.6-0.1c-1.2-0.2-3-0.3-5.6-0.3c-0.7,0-1.8,0-3.2,0.1c-1.4,0-2.5,0.1-3.2,0.1c-0.3,0-0.5-0.1-0.5-0.4   c0-1.1,0.1-2.7,0.2-4.9c0.1-2.2,0.2-3.8,0.2-4.9c0-1.1-0.1-3.2-0.2-6.2c0-0.8-0.1-1.9-0.2-3.5l0-0.2c0-0.2,0.1-0.3,0.4-0.3   c0.7,0,1.7,0,3.1,0.1c1.4,0,2.4,0.1,3.1,0.1c0.7,0,1.6,0,2.9-0.1s2.3-0.1,2.9-0.1c0.5,0,0.7,0.1,0.7,0.4c0.2,1.3,0.3,2.1,0.3,2.4   c0,0.2-0.1,0.3-0.3,0.3c-0.8,0-2.1,0-3.8-0.1c-1.7-0.1-2.9-0.1-3.8-0.1c-0.8,0-1.3,0.1-1.5,0.3c-0.2,0.2-0.3,0.7-0.3,1.6v2.2   c0,0.6,0,0.9,0,1c0.1,0.3,0.3,0.5,0.8,0.5c0.1,0,0.3,0,0.5,0c0.2,0,0.4,0,0.5,0c1.9,0,3.6,0,5.1-0.1c0.6,0,1.3-0.1,2.1-0.1   c0.2,0,0.3,0.1,0.3,0.3c0,0.3,0,0.8-0.1,1.4c-0.1,0.6-0.1,1.1-0.1,1.4c0,0.2-0.1,0.3-0.4,0.3c-0.1,0-0.5,0-1.3-0.1   c-0.5-0.1-1.8-0.1-3.7-0.1c-1.6,0-2.6,0-3,0.1c-0.4,0-0.6,0.2-0.7,0.6c0-0.1,0,0.3,0,1.1v2.2c0,1,0.2,1.6,0.5,1.9   c0.2,0.2,0.8,0.3,1.8,0.3l1.6,0c0.7,0,2.6-0.1,5.7-0.3l0.2,0C220.1,27.7,220.2,27.8,220.2,28.1z"></path>
	<path class="st7" d="M238.2,30.9c0,0.1-0.1,0.1-0.2,0.1c-0.2,0-0.5,0-0.8,0s-0.7,0-0.8,0c-0.2,0-0.5,0-0.9,0c-0.4,0-0.7,0-0.9,0   c-0.2,0-0.4-0.1-0.5-0.4c-0.3-0.7-1.2-2.7-2.7-6.1c-0.1-0.3-0.5-0.6-1.1-0.6c-0.1,0-0.6,0-1.3,0c-1.3,0-2.1,0-2.4,0.1   c-0.2,0-0.3,0.3-0.3,0.7c0,0.7,0,1.7,0.1,3.1c0.1,1.4,0.1,2.4,0.1,3c0,0.2-0.1,0.3-0.3,0.3s-0.5,0-0.9-0.1c-0.4,0-0.7-0.1-0.9-0.1   c-0.2,0-0.4,0-0.8,0c-0.3,0-0.6,0-0.8,0c-0.2,0-0.4-0.1-0.4-0.3c0-1.1,0.1-2.7,0.2-4.9c0.1-2.2,0.2-3.8,0.2-4.9   c0-3.1-0.1-6.3-0.3-9.8l0-0.2c0-0.2,0.2-0.3,0.6-0.3c0.8,0,2.1,0,3.8-0.1c1.7,0,2.9-0.1,3.7-0.1c2.2,0,3.9,0.5,5.2,1.5   c1.4,1.1,2.2,2.7,2.2,4.8c0,1.4-0.2,2.6-0.6,3.4c-0.4,0.9-1.2,1.7-2.3,2.5c-0.2,0.1-0.3,0.2-0.3,0.4c0,0.1,0.6,1.4,1.7,3.9   C237.6,29.4,238.2,30.7,238.2,30.9z M234.2,17.7c0-1.8-0.5-2.9-1.5-3.5c-0.7-0.4-2.1-0.7-4-0.7c-1.6,0-2.4,0.1-2.4,0.4   c-0.1,0.5-0.1,1.9-0.1,4.2v2.8c0,0,0.1,0,0.2,0.1c0.2,0,0.5,0,0.9,0.1c0.9,0,1.9,0.1,3,0.1C232.9,21.1,234.2,19.9,234.2,17.7z"></path>
	<path class="st7" d="M256.7,18.1c0,2.3-0.6,4.1-1.9,5.5c-1.3,1.4-3,2.1-5.3,2.1c-0.6,0-1.4,0-2.5-0.1s-2-0.1-2.5-0.1   c-0.3,0-0.5,0.2-0.5,0.6c0,0.5,0,1.3,0.1,2.3s0.1,1.8,0.1,2.3c0,0.2-0.1,0.2-0.3,0.2c-0.2,0-0.5,0-0.9-0.1c-0.4,0-0.7-0.1-0.9-0.1   c-0.2,0-0.4,0-0.8,0s-0.6,0-0.8,0c-0.2,0-0.4-0.2-0.4-0.5c0-1.1,0-2.7,0.1-4.8c0.1-2.1,0.1-3.7,0.1-4.8c0-3-0.1-6.3-0.3-9.8l0-0.2   c0-0.2,0.1-0.3,0.4-0.3c0.5,0,1.3,0,2.4,0s1.8,0,2.4,0c0.5,0,1.1,0,2.1-0.1s1.6-0.1,2.1-0.1c2.1,0,3.9,0.7,5.3,2.2   C256,14.2,256.7,16,256.7,18.1z M253,18.3c0-1.5-0.4-2.6-1.2-3.5c-0.8-0.9-1.9-1.4-3.4-1.4c-0.4,0-1.2,0-2.4,0.1   c-1.3,0.1-2,0.2-2,0.2c-0.1,0.1-0.1,1.8-0.1,5c0,0.4,0,1,0,1.8c0,0.8,0,1.4,0,1.8c0,0.1,0.1,0.2,0.3,0.2c0.5,0.1,2,0.2,4.4,0.2   c1.4,0,2.4-0.4,3.2-1.3C252.7,20.8,253,19.7,253,18.3z"></path>
	<path class="st7" d="M274.6,30.9c0,0.1-0.1,0.1-0.2,0.1c-0.2,0-0.5,0-0.8,0s-0.7,0-0.8,0c-0.2,0-0.5,0-0.9,0s-0.7,0-0.9,0   c-0.2,0-0.4-0.1-0.5-0.4c-0.3-0.7-1.2-2.7-2.7-6.1c-0.1-0.3-0.5-0.6-1.1-0.6c-0.1,0-0.6,0-1.3,0c-1.3,0-2.1,0-2.4,0.1   c-0.2,0-0.3,0.3-0.3,0.7c0,0.7,0,1.7,0.1,3.1c0.1,1.4,0.1,2.4,0.1,3c0,0.2-0.1,0.3-0.3,0.3s-0.5,0-0.9-0.1c-0.4,0-0.7-0.1-0.9-0.1   c-0.2,0-0.4,0-0.8,0s-0.6,0-0.8,0c-0.2,0-0.4-0.1-0.4-0.3c0-1.1,0.1-2.7,0.2-4.9c0.1-2.2,0.2-3.8,0.2-4.9c0-3.1-0.1-6.3-0.3-9.8   l0-0.2c0-0.2,0.2-0.3,0.6-0.3c0.8,0,2.1,0,3.8-0.1s2.9-0.1,3.7-0.1c2.2,0,3.9,0.5,5.2,1.5c1.4,1.1,2.2,2.7,2.2,4.8   c0,1.4-0.2,2.6-0.6,3.4c-0.4,0.9-1.2,1.7-2.3,2.5c-0.2,0.1-0.3,0.2-0.3,0.4c0,0.1,0.6,1.4,1.7,3.9C274,29.4,274.6,30.7,274.6,30.9z    M270.6,17.7c0-1.8-0.5-2.9-1.5-3.5c-0.7-0.4-2.1-0.7-4-0.7c-1.6,0-2.4,0.1-2.4,0.4c-0.1,0.5-0.1,1.9-0.1,4.2v2.8   c0,0,0.1,0,0.2,0.1c0.2,0,0.5,0,0.9,0.1c0.9,0,1.9,0.1,3,0.1C269.2,21.1,270.6,19.9,270.6,17.7z"></path>
	<path class="st7" d="M280.6,30.7c0,0.2-0.1,0.3-0.4,0.3c-0.2,0-0.4,0-0.8,0s-0.6,0-0.8,0c-0.2,0-0.5,0-0.8,0c-0.4,0-0.6,0-0.8,0   c-0.2,0-0.4-0.1-0.4-0.3c0-1.1,0.1-2.8,0.2-5c0.1-2.2,0.2-3.9,0.2-5c0-1.1-0.1-2.7-0.2-4.9c-0.1-2.2-0.2-3.8-0.2-4.9   c0-0.2,0.1-0.4,0.3-0.4c0.2,0,0.5,0,0.8,0c0.4,0,0.7,0,0.9,0c0.2,0,0.4,0,0.8,0s0.6,0,0.8,0c0.3,0,0.4,0.1,0.4,0.3   c0,1.1,0,2.7-0.1,4.9c-0.1,2.2-0.1,3.8-0.1,4.9c0,1.1,0,2.8,0.1,5C280.5,27.9,280.6,29.6,280.6,30.7z"></path>
	<path class="st7" d="M295.3,12c-0.2,0.3-0.5,0.8-0.8,1.5c-0.1,0.3-0.3,0.7-0.6,1.3c-0.1,0.1-0.1,0.1-0.2,0.1c0,0-0.5-0.2-1.4-0.5   s-1.7-0.5-2.3-0.5c-1.8,0-2.7,0.8-2.7,2.4c0,0.9,0.6,1.6,1.9,2.3c2.1,1.1,3.3,1.7,3.5,1.9c1.3,1,1.9,2.4,1.9,4.1   c0,2.2-0.9,3.9-2.6,5.1c-1.5,1.1-3.4,1.7-5.7,1.7c-1,0-1.6-0.1-1.7-0.3c0-0.4-0.1-0.9-0.3-1.6c-0.1-0.3-0.2-0.7-0.4-1.3   c0-0.1,0-0.2,0-0.2c0-0.1,0.1-0.2,0.2-0.2c0.2,0,0.6,0,1.1,0.1c0.5,0,0.8,0.1,1.1,0.1c3,0,4.5-1,4.5-2.9c0-1-0.6-1.8-1.8-2.5   c-2.2-1.3-3.3-1.9-3.4-2c-1.2-1-1.8-2.3-1.8-4c0-1.8,0.6-3.3,1.8-4.3c1.2-1,2.7-1.6,4.5-1.6c0.8,0,1.7,0.1,2.7,0.4   c1.1,0.3,1.9,0.6,2.5,1C295.2,11.9,295.2,11.9,295.3,12z"></path>
	<path class="st7" d="M311.3,28.1c0,0.2,0,0.4-0.1,0.7c-0.1,0.4-0.1,0.6-0.2,0.7c0,0.3-0.1,0.9-0.2,1.5c0,0.2-0.2,0.3-0.4,0.3   c-0.1,0-0.3,0-0.6-0.1c-1.2-0.2-3-0.3-5.6-0.3c-0.7,0-1.8,0-3.2,0.1c-1.4,0-2.5,0.1-3.2,0.1c-0.3,0-0.5-0.1-0.5-0.4   c0-1.1,0.1-2.7,0.2-4.9c0.1-2.2,0.2-3.8,0.2-4.9c0-1.1-0.1-3.2-0.2-6.2c0-0.8-0.1-1.9-0.2-3.5l0-0.2c0-0.2,0.1-0.3,0.4-0.3   c0.7,0,1.7,0,3.1,0.1c1.4,0,2.4,0.1,3.1,0.1c0.7,0,1.6,0,2.9-0.1s2.3-0.1,2.9-0.1c0.5,0,0.7,0.1,0.7,0.4c0.2,1.3,0.3,2.1,0.3,2.4   c0,0.2-0.1,0.3-0.3,0.3c-0.8,0-2.1,0-3.8-0.1c-1.7-0.1-2.9-0.1-3.8-0.1c-0.8,0-1.3,0.1-1.5,0.3c-0.2,0.2-0.3,0.7-0.3,1.6v2.2   c0,0.6,0,0.9,0,1c0.1,0.3,0.3,0.5,0.8,0.5c0.1,0,0.3,0,0.5,0c0.2,0,0.4,0,0.5,0c1.9,0,3.6,0,5.1-0.1c0.6,0,1.3-0.1,2.1-0.1   c0.2,0,0.3,0.1,0.3,0.3c0,0.3,0,0.8-0.1,1.4c-0.1,0.6-0.1,1.1-0.1,1.4c0,0.2-0.1,0.3-0.4,0.3c-0.1,0-0.5,0-1.3-0.1   c-0.5-0.1-1.8-0.1-3.7-0.1c-1.6,0-2.6,0-3,0.1c-0.4,0-0.6,0.2-0.7,0.6c0-0.1,0,0.3,0,1.1v2.2c0,1,0.2,1.6,0.5,1.9   c0.2,0.2,0.8,0.3,1.8,0.3l1.6,0c0.7,0,2.6-0.1,5.7-0.3l0.2,0C311.2,27.7,311.3,27.8,311.3,28.1z"></path>
</g>
<g class="st2">
	<path class="st8" d="M92.3,42.8c0,1.8-0.6,3.3-1.7,4.6c-1.2,1.3-2.7,2-4.5,2c-1.8,0-3.3-0.7-4.5-2c-1.1-1.3-1.7-2.8-1.7-4.6   c0-1.8,0.6-3.3,1.7-4.6c1.2-1.3,2.7-2,4.4-2c1.8,0,3.3,0.7,4.4,2C91.7,39.5,92.3,41,92.3,42.8z M90.1,42.8c0-1.2-0.4-2.2-1.1-3.1   c-0.8-0.9-1.7-1.4-2.9-1.4c-1.2,0-2.1,0.5-2.9,1.4c-0.7,0.9-1.1,1.9-1.1,3.1c0,1.2,0.4,2.2,1.1,3.1c0.8,0.9,1.7,1.4,2.9,1.4   c1.2,0,2.1-0.5,2.9-1.4C89.8,45,90.1,44,90.1,42.8z"></path>
	<path class="st8" d="M102.8,44.8c0,1.2-0.4,2.3-1.2,3.2c-0.8,0.9-1.8,1.4-3,1.4c-0.7,0-1.4-0.2-2-0.7c-0.3-0.2-0.5-0.5-0.8-0.7   c0,0-0.1,0.1-0.1,0.1c0,0,0,0.4,0,1l0,2.6c0,0.2-0.1,0.3-0.2,0.3c-0.9,0-1.5,0-1.6,0c-0.1,0-0.2-0.1-0.2-0.2c0-0.8,0-1.9,0-3.5   s0-2.7,0-3.5c0-1.4-0.1-2.8-0.3-4c0-0.1,0-0.1,0-0.1c0-0.1,0-0.1,0.1-0.1c0.2,0,0.6,0,1-0.1c0.6-0.1,0.9-0.2,1-0.2   c0.1,0,0.2,0.2,0.2,0.5c0,0.2,0,0.5,0,0.7c0,0,0,0.1,0.1,0.1c0,0,0.1-0.1,0.1-0.1c0.8-0.9,1.7-1.3,2.6-1.3c1.2,0,2.2,0.5,3,1.4   C102.4,42.6,102.8,43.6,102.8,44.8z M100.7,44.8c0-0.7-0.2-1.4-0.7-1.9C99.6,42.3,99,42,98.2,42c-0.7,0-1.3,0.3-1.7,0.9   c-0.4,0.5-0.6,1.2-0.6,1.9c0,0.7,0.2,1.4,0.6,1.9c0.5,0.6,1.1,0.9,1.8,0.9c0.7,0,1.3-0.3,1.7-0.9C100.5,46.1,100.7,45.5,100.7,44.8   z"></path>
	<path class="st8" d="M109.3,47.5c0,0.1,0,0.3,0,0.5c0,0.3,0,0.5-0.1,0.6c0,0.1,0,0.2,0,0.2c0,0-0.1,0.1-0.2,0.1   c-0.5,0.2-1.3,0.4-2.3,0.4c-1.4,0-2.1-0.6-2.1-1.9c0-0.5,0-1.3,0-2.3c0-1,0-1.8,0-2.3c0-0.2-0.1-0.4-0.4-0.4c-0.2,0-0.4,0-0.7,0   c-0.1,0-0.2-0.3-0.2-0.7c0-0.2,0-0.4,0-0.6c0-0.1,0.1-0.2,0.3-0.3c0.2,0,0.3,0,0.4,0c0.3,0,0.4-0.1,0.4-0.4c0-0.2,0-0.6,0-1.1   s0-0.9,0-1.1c0-0.4,0.1-0.7,0.3-0.7c0.1,0,0.6,0.1,1.7,0.3c0.1,0,0.2,0.1,0.2,0.2c0,0.3,0,0.7-0.1,1.2c0,0.5-0.1,0.9-0.1,1.2   c0,0.2,0.1,0.3,0.2,0.3h2.2c0.1,0,0.2,0,0.2,0.1s0,0.2,0,0.3c0,0.2,0,0.3,0,0.4c0,0.1,0,0.2,0,0.4c0,0.2,0,0.3,0,0.4   c0,0.1-0.1,0.2-0.3,0.2c-0.2,0-0.6,0-1.1,0c-0.5,0-0.9,0-1.1,0c0,0-0.1,0.2-0.1,0.5c0,0.4,0,1,0,1.8v1.3c0,0.5,0,0.9,0.1,1.1   c0.1,0.3,0.4,0.5,0.9,0.5c0.2,0,0.5,0,0.8-0.1c0.4-0.1,0.6-0.1,0.8-0.1C109.2,47.4,109.3,47.4,109.3,47.5z"></path>
	<path class="st8" d="M112.9,38.4c0,0.7-0.4,1.1-1.2,1.1c-0.8,0-1.3-0.4-1.3-1.1c0-0.3,0.1-0.6,0.4-0.8c0.2-0.2,0.5-0.3,0.9-0.3   c0.3,0,0.6,0.1,0.9,0.3C112.8,37.8,112.9,38,112.9,38.4z M112.9,40.8c0,0.5,0,1.2-0.1,2.1c-0.1,0.9-0.1,1.6-0.1,2.1   c0,0.4,0,1.1,0,2c0,0.9,0,1.5,0,2c0,0.1-0.1,0.2-0.2,0.2h-1.8c-0.1,0-0.2-0.1-0.2-0.4c0-0.4,0-1,0-1.9c0-0.8,0-1.5,0-1.9   c0-0.5,0-1.2-0.1-2.1c-0.1-0.9-0.1-1.6-0.1-2.1c0-0.1,0.1-0.2,0.2-0.2c0.1,0,0.3,0,0.5,0c0.2,0,0.4,0,0.5,0s0.3,0,0.5,0   s0.4,0,0.5,0C112.8,40.6,112.9,40.7,112.9,40.8z"></path>
	<path class="st8" d="M128.4,48.9c0,0.2-0.1,0.4-0.2,0.4c-0.1,0-0.2,0-0.4,0c-0.2,0-0.3,0-0.4,0c-0.1,0-0.3,0-0.5,0   c-0.2,0-0.4,0-0.5,0c-0.1,0-0.2-0.1-0.2-0.4c0-0.3,0-0.7,0-1.2s0-1,0-1.2c0-1.5,0-2.4,0-2.6c0-0.6-0.2-1.1-0.4-1.3   c-0.2-0.3-0.7-0.4-1.3-0.4c-0.4,0-0.8,0.2-1.3,0.5c-0.5,0.4-0.8,0.8-0.8,1.1c0,0.5,0,1.3,0,2.6c0,0.3,0,0.7,0,1.3c0,0.6,0,1,0,1.3   c0,0.2-0.1,0.2-0.2,0.2c-0.1,0-0.3,0-0.5,0c-0.2,0-0.4,0-0.5,0c-0.1,0-0.2,0-0.4,0c-0.2,0-0.3,0-0.4,0c-0.1,0-0.2-0.1-0.2-0.3   c0-0.3,0-0.7,0-1.3s0-1,0-1.3v-2.2c0-0.7-0.1-1.2-0.2-1.5c-0.2-0.4-0.7-0.6-1.3-0.6c-0.4,0-0.8,0.2-1.4,0.5   c-0.6,0.4-0.9,0.7-0.9,1.1v2.6c0,0.3,0,0.8,0,1.3c0,0.6,0,1,0,1.3c0,0.2-0.1,0.3-0.2,0.3h-1.7c-0.1,0-0.2-0.1-0.2-0.2   c0-0.5,0-1.2,0-2.2c0-1,0-1.7,0-2.2c0-1.1-0.1-2.2-0.4-3.3c0-0.1,0-0.1,0-0.2c0-0.1,0-0.1,0.1-0.1c0.2,0,0.5-0.1,1-0.1   c0.2-0.1,0.5-0.1,0.9-0.2l0.1,0c0.1,0,0.1,0.2,0.2,0.6c0.1,0.4,0.1,0.6,0.2,0.6l0.5-0.4c0.4-0.3,0.7-0.6,1.1-0.7   c0.5-0.3,1-0.4,1.5-0.4c1.4,0,2.3,0.6,2.7,1.7c0.4-0.5,0.8-0.9,1.4-1.2c0.6-0.3,1.2-0.5,1.8-0.5c1.1,0,1.9,0.3,2.3,1   c0.3,0.5,0.5,1.2,0.5,2.3c0,0.2,0,0.5,0,0.9c0,0.4,0,0.7,0,0.9c0,0.4,0,1,0,1.7C128.4,47.9,128.4,48.5,128.4,48.9z"></path>
	<path class="st8" d="M132.6,38.4c0,0.7-0.4,1.1-1.2,1.1c-0.8,0-1.3-0.4-1.3-1.1c0-0.3,0.1-0.6,0.4-0.8c0.2-0.2,0.5-0.3,0.9-0.3   c0.3,0,0.6,0.1,0.9,0.3C132.5,37.8,132.6,38,132.6,38.4z M132.5,40.8c0,0.5,0,1.2-0.1,2.1c-0.1,0.9-0.1,1.6-0.1,2.1   c0,0.4,0,1.1,0,2c0,0.9,0,1.5,0,2c0,0.1-0.1,0.2-0.2,0.2h-1.8c-0.1,0-0.2-0.1-0.2-0.4c0-0.4,0-1,0-1.9c0-0.8,0-1.5,0-1.9   c0-0.5,0-1.2-0.1-2.1c-0.1-0.9-0.1-1.6-0.1-2.1c0-0.1,0.1-0.2,0.2-0.2c0.1,0,0.3,0,0.5,0c0.2,0,0.4,0,0.5,0s0.3,0,0.5,0   s0.4,0,0.5,0C132.5,40.6,132.5,40.7,132.5,40.8z"></path>
	<path class="st8" d="M141,47.5c0,0,0,0.2-0.1,0.6c-0.1,0.4-0.2,0.7-0.2,0.8c0,0.2-0.1,0.3-0.2,0.3c-0.2,0-0.5,0-0.9,0   c-0.4,0-0.7,0-0.8-0.1c-0.4,0-1,0-1.7,0c-0.6,0-1.2,0-1.9,0.1c-0.9,0.1-1.3,0.1-1.1,0.1c-0.1,0-0.2-0.1-0.2-0.2   c-0.1-0.3-0.1-0.6-0.1-1c0-0.1,0-0.1,0-0.2c0-0.1,0-0.2,0-0.2c0-0.1,0.1-0.2,0.2-0.3c0.1-0.1,0.8-0.8,1.9-2.1   c0.6-0.6,1.4-1.5,2.5-2.8h-4c-0.1,0-0.1-0.1-0.1-0.2c0-0.2,0-0.4,0.1-0.8c0.1-0.3,0.1-0.6,0.1-0.8c0-0.1,0.1-0.1,0.3-0.1   c0.3,0,0.8,0,1.5,0c0.7,0,1.2,0,1.5,0c1.7,0,2.6,0,2.8,0c0.2,0,0.2,0.1,0.2,0.2c0,0.9,0,1.4-0.1,1.5c-0.1,0.1-0.6,0.7-1.6,1.8   c-0.6,0.7-1.6,1.8-2.9,3.2c2-0.1,3.6-0.1,4.7-0.1C141,47.4,141,47.4,141,47.5z"></path>
	<path class="st8" d="M149.8,44.3c0,0.4-0.2,0.7-0.6,0.9c-0.3,0.1-2.1,0.3-5.6,0.5c0.1,0.5,0.4,1,0.9,1.4c0.5,0.4,1,0.5,1.6,0.5   c1,0,1.8-0.3,2.6-0.9c0.1-0.1,0.2-0.2,0.3-0.2c0,0,0.1,0,0.1,0c0,0,0.1,0.2,0.3,0.6c0.2,0.4,0.3,0.6,0.3,0.7c0,0,0,0.1-0.1,0.2   c-0.9,0.9-2,1.4-3.4,1.4c-1.4,0-2.5-0.4-3.4-1.3c-0.8-0.8-1.2-2-1.2-3.3c0-1.2,0.4-2.3,1.2-3.3c0.8-1,1.9-1.4,3.1-1.4   c1.1,0,2.1,0.4,2.8,1.2C149.4,42.2,149.8,43.2,149.8,44.3z M147.6,43.8c0-0.5-0.2-0.9-0.6-1.3s-0.8-0.6-1.3-0.6   c-0.6,0-1,0.2-1.5,0.7s-0.6,0.9-0.6,1.5c0,0.1,0.1,0.2,0.3,0.2c0.9,0,2-0.1,3.2-0.3C147.5,43.9,147.6,43.9,147.6,43.8z"></path>
	<path class="st8" d="M163.3,42.9c0,1,0,1.6-0.1,1.8c-0.1,0.3-0.8,1.5-2.2,3.6c-1.4,2.1-2.3,3.3-2.5,3.5c-0.2,0.2-1,0.3-2.3,0.3   c-0.2,0-0.3,0-0.3,0s-0.1-0.3-0.3-0.7c-0.2-0.4-0.2-0.6-0.2-0.7c0-0.1,0.2-0.2,0.5-0.2c0.7,0,1.2-0.1,1.5-0.3   c0.1-0.1,0.3-0.3,0.5-0.6c0.2-0.4,0.3-0.6,0.3-0.7c0-0.2-0.4-0.8-1.3-1.9c-0.9-1.2-1.4-1.9-1.5-2.2c-0.1-0.2-0.1-0.8-0.1-1.8   c0-0.2,0-0.6,0-1c0-0.5,0-0.8,0-1c0-0.1,0.1-0.2,0.2-0.2c0.2,0,0.5,0,0.9,0c0.4,0,0.7,0,0.9,0c0.1,0,0.1,0.1,0.1,0.2   c0,0.2,0,0.4,0,0.8c0,0.3,0,0.6,0,0.8c0,0.7,0,1.3,0.1,1.6c0,0.2,0.4,0.8,1,1.7c0.6,0.9,1,1.4,1.2,1.4c0.1,0,0.4-0.4,1-1.3   c0.5-0.9,0.8-1.5,0.9-1.7c0-0.3,0.1-0.9,0.1-1.6c0-0.2,0-0.4-0.1-0.8s-0.1-0.6-0.1-0.8c0-0.2,0-0.2,0.1-0.2c0.2,0,0.5,0,0.9,0   c0.4,0,0.7,0,0.9,0C163.2,40.7,163.3,41.4,163.3,42.9z"></path>
	<path class="st8" d="M172.7,44.8c0,1.3-0.4,2.3-1.2,3.2c-0.8,0.9-1.9,1.4-3.1,1.4c-1.3,0-2.3-0.5-3.2-1.4c-0.8-0.9-1.2-2-1.2-3.2   c0-1.3,0.4-2.3,1.2-3.2c0.9-0.9,1.9-1.4,3.2-1.4c1.2,0,2.3,0.5,3.1,1.4C172.3,42.5,172.7,43.5,172.7,44.8z M170.8,44.8   c0-0.7-0.2-1.4-0.7-1.9c-0.5-0.5-1.1-0.8-1.8-0.8s-1.3,0.3-1.8,0.8c-0.5,0.5-0.7,1.2-0.7,1.9c0,0.7,0.2,1.4,0.7,1.9   c0.5,0.6,1.1,0.8,1.8,0.8c0.7,0,1.3-0.3,1.8-0.8C170.6,46.2,170.8,45.5,170.8,44.8z"></path>
	<path class="st8" d="M182.4,41c0,0.4,0,1.1-0.1,2s-0.1,1.6-0.1,2c0,0.4,0,1.1,0,2c0,0.9,0,1.5,0,2c0,0.1-0.1,0.2-0.2,0.2   c0,0-0.7,0-1.8,0c-0.1,0-0.1-0.2-0.1-0.7c0-0.5,0-0.7-0.1-0.7c0,0-0.1,0-0.1,0.1c-1,0.9-2,1.3-3,1.3c-1.3,0-2.2-0.5-2.6-1.4   c-0.3-0.6-0.4-1.7-0.4-3.2c0-1.4,0.1-2.6,0.3-3.6c0.1-0.2,0.2-0.4,0.3-0.4c0.2,0,0.4,0,0.8,0c0.3,0,0.6,0,0.8,0   c0.1,0,0.2,0.1,0.2,0.2c0,0.2,0,0.6-0.1,1.2c-0.1,0.6-0.1,1-0.1,1.2c0,0.4,0,0.8,0,1.2c0,1.1,0.1,1.8,0.2,2.1c0.3,0.7,0.8,1,1.7,1   c0.4,0,0.8-0.2,1.3-0.6c0.5-0.4,0.8-0.8,0.9-1.1c0-0.5,0-2,0-4.8c0-0.3,0.1-0.4,0.4-0.4h1.5C182.3,40.7,182.4,40.8,182.4,41z"></path>
	<path class="st8" d="M189.4,40.7c0,0.7,0,1.3-0.1,1.8c0,0.1-0.1,0.2-0.2,0.2c-0.1,0-0.3,0-0.6,0c-0.3,0-0.5,0-0.6,0   c-0.8,0-1.2,0.2-1.5,0.6c-0.1,0.3-0.2,0.8-0.2,1.6v1c0,0.3,0,0.9,0,1.5s0,1.2,0,1.5c0,0.2-0.1,0.2-0.2,0.2c-0.2,0-0.5,0-0.9,0   c-0.4,0-0.7,0-0.9,0c-0.1,0-0.2-0.1-0.2-0.2c0-0.5,0-1.2,0-2.2c0-1,0-1.7,0-2.2c0-1.5-0.1-2.7-0.4-3.6c0,0,0-0.1,0-0.1   c0-0.1,0-0.1,0.1-0.2c0.2,0,0.5-0.1,0.9-0.1c0.7-0.1,1-0.2,0.9-0.2c0.1,0,0.2,0.2,0.2,0.5s0.1,0.5,0.2,0.5c0,0,0,0,0,0   c0.2-0.2,0.5-0.3,0.7-0.5c0.3-0.2,0.5-0.3,0.8-0.4c0.2-0.1,0.5-0.1,0.9-0.1C189.2,40.5,189.4,40.6,189.4,40.7z"></path>
	<path class="st8" d="M203.3,44.8c0,1.3-0.4,2.3-1.2,3.2c-0.8,0.9-1.9,1.4-3.1,1.4c-1.3,0-2.3-0.5-3.2-1.4c-0.8-0.9-1.2-2-1.2-3.2   c0-1.3,0.4-2.3,1.2-3.2c0.9-0.9,1.9-1.4,3.2-1.4c1.2,0,2.3,0.5,3.1,1.4C202.8,42.5,203.3,43.5,203.3,44.8z M201.4,44.8   c0-0.7-0.2-1.4-0.7-1.9c-0.5-0.5-1.1-0.8-1.8-0.8s-1.3,0.3-1.8,0.8c-0.5,0.5-0.7,1.2-0.7,1.9c0,0.7,0.2,1.4,0.7,1.9   c0.5,0.6,1.1,0.8,1.8,0.8c0.7,0,1.3-0.3,1.8-0.8C201.1,46.2,201.4,45.5,201.4,44.8z"></path>
	<path class="st8" d="M212.5,49c0,0.1-0.1,0.2-0.2,0.2c-0.2,0-0.5,0-0.9,0s-0.7,0-0.9,0c-0.1,0-0.2-0.1-0.2-0.3c0-0.3,0-0.7,0-1.3   c0-0.6,0-1.1,0-1.4c0-0.2,0-0.6,0-1.1c0-0.5,0-0.8,0-1.1c0-0.7-0.1-1.2-0.3-1.5c-0.2-0.3-0.7-0.5-1.3-0.5c-0.3,0-0.7,0.2-1.3,0.5   c-0.6,0.4-0.9,0.7-0.9,1V49c0,0.2-0.1,0.2-0.2,0.2c-0.2,0-0.5,0-0.9,0c-0.4,0-0.7,0-0.9,0c-0.1,0-0.2-0.1-0.2-0.2   c0-0.5,0-1.2,0-2.1c0-1,0-1.7,0-2.2c0-1.3-0.1-2.5-0.4-3.6c0-0.1,0-0.1,0-0.1c0-0.1,0-0.1,0.1-0.1c0,0,0.4-0.1,1-0.2s1-0.2,1-0.2   c0,0,0.1,0,0.1,0.1c0,0.4,0.1,0.8,0.2,1.1c0.3-0.2,0.7-0.6,1.2-0.9c0.6-0.4,1.2-0.6,1.8-0.6c1.1,0,1.9,0.3,2.3,1   c0.3,0.5,0.5,1.3,0.5,2.3c0,0.2,0,0.5,0,0.9c0,0.4,0,0.7,0,0.9c0,0.4,0,1,0,1.8C212.5,48,212.5,48.6,212.5,49z"></path>
	<path class="st8" d="M216.5,36.6l0,0.1c-0.1,2.2-0.2,4.2-0.2,5.8c0,0.7,0,1.8,0,3.2c0,1.4,0,2.5,0,3.2c0,0.1,0,0.2-0.1,0.2h-1.7   c-0.1,0-0.2-0.1-0.2-0.2c0-0.7,0-1.8,0-3.2c0-1.4,0-2.5,0-3.2c0-0.7,0-1.6-0.1-2.9s-0.1-2.3-0.1-2.9c0-0.1,0.1-0.2,0.2-0.2   c0.1,0,0.3,0,0.5,0c0.2,0,0.4,0,0.5,0c0.1,0,0.3,0,0.5,0c0.2,0,0.4,0,0.5,0C216.5,36.5,216.5,36.5,216.5,36.6z"></path>
	<path class="st8" d="M220.7,38.4c0,0.7-0.4,1.1-1.2,1.1c-0.8,0-1.3-0.4-1.3-1.1c0-0.3,0.1-0.6,0.4-0.8c0.2-0.2,0.5-0.3,0.9-0.3   c0.3,0,0.6,0.1,0.9,0.3C220.6,37.8,220.7,38,220.7,38.4z M220.6,40.8c0,0.5,0,1.2-0.1,2.1c-0.1,0.9-0.1,1.6-0.1,2.1   c0,0.4,0,1.1,0,2c0,0.9,0,1.5,0,2c0,0.1-0.1,0.2-0.2,0.2h-1.8c-0.1,0-0.2-0.1-0.2-0.4c0-0.4,0-1,0-1.9c0-0.8,0-1.5,0-1.9   c0-0.5,0-1.2-0.1-2.1c-0.1-0.9-0.1-1.6-0.1-2.1c0-0.1,0.1-0.2,0.2-0.2c0.1,0,0.3,0,0.5,0c0.2,0,0.4,0,0.5,0c0.1,0,0.3,0,0.5,0   s0.4,0,0.5,0C220.6,40.6,220.6,40.7,220.6,40.8z"></path>
	<path class="st8" d="M230.4,49c0,0.1-0.1,0.2-0.2,0.2c-0.2,0-0.5,0-0.9,0s-0.7,0-0.9,0c-0.1,0-0.2-0.1-0.2-0.3c0-0.3,0-0.7,0-1.3   c0-0.6,0-1.1,0-1.4c0-0.2,0-0.6,0-1.1c0-0.5,0-0.8,0-1.1c0-0.7-0.1-1.2-0.3-1.5c-0.2-0.3-0.7-0.5-1.3-0.5c-0.3,0-0.7,0.2-1.3,0.5   c-0.6,0.4-0.9,0.7-0.9,1V49c0,0.2-0.1,0.2-0.2,0.2c-0.2,0-0.5,0-0.9,0s-0.7,0-0.9,0c-0.1,0-0.2-0.1-0.2-0.2c0-0.5,0-1.2,0-2.1   c0-1,0-1.7,0-2.2c0-1.3-0.1-2.5-0.4-3.6c0-0.1,0-0.1,0-0.1c0-0.1,0-0.1,0.1-0.1c0,0,0.4-0.1,1-0.2c0.6-0.1,1-0.2,1-0.2   c0,0,0.1,0,0.1,0.1c0,0.4,0.1,0.8,0.2,1.1c0.3-0.2,0.7-0.6,1.2-0.9c0.6-0.4,1.2-0.6,1.8-0.6c1.1,0,1.9,0.3,2.3,1   c0.3,0.5,0.5,1.3,0.5,2.3c0,0.2,0,0.5,0,0.9s0,0.7,0,0.9c0,0.4,0,1,0,1.8C230.4,48,230.4,48.6,230.4,49z"></path>
	<path class="st8" d="M239.8,44.3c0,0.4-0.2,0.7-0.6,0.9c-0.3,0.1-2.1,0.3-5.6,0.5c0.1,0.5,0.4,1,0.9,1.4c0.5,0.4,1,0.5,1.6,0.5   c1,0,1.8-0.3,2.6-0.9c0.1-0.1,0.2-0.2,0.3-0.2c0,0,0.1,0,0.1,0c0,0,0.1,0.2,0.3,0.6c0.2,0.4,0.3,0.6,0.3,0.7c0,0,0,0.1-0.1,0.2   c-0.9,0.9-2,1.4-3.4,1.4c-1.4,0-2.5-0.4-3.4-1.3c-0.8-0.8-1.2-2-1.2-3.3c0-1.2,0.4-2.3,1.2-3.3c0.8-1,1.9-1.4,3.1-1.4   c1.1,0,2.1,0.4,2.8,1.2C239.4,42.2,239.8,43.2,239.8,44.3z M237.6,43.8c0-0.5-0.2-0.9-0.6-1.3s-0.8-0.6-1.3-0.6   c-0.6,0-1,0.2-1.5,0.7s-0.6,0.9-0.6,1.5c0,0.1,0.1,0.2,0.3,0.2c0.9,0,2-0.1,3.2-0.3C237.5,43.9,237.6,43.9,237.6,43.8z"></path>
	<path class="st8" d="M254.7,44.8c0,1.2-0.4,2.3-1.2,3.2c-0.8,0.9-1.8,1.4-3,1.4c-0.7,0-1.4-0.2-2-0.7c-0.3-0.2-0.5-0.5-0.8-0.7   c0,0-0.1,0.1-0.1,0.1c0,0,0,0.4,0,1l0,2.6c0,0.2-0.1,0.3-0.2,0.3c-0.9,0-1.5,0-1.6,0c-0.1,0-0.2-0.1-0.2-0.2c0-0.8,0-1.9,0-3.5   c0-1.5,0-2.7,0-3.5c0-1.4-0.1-2.8-0.3-4c0-0.1,0-0.1,0-0.1c0-0.1,0-0.1,0.1-0.1c0.2,0,0.6,0,1-0.1c0.6-0.1,0.9-0.2,1-0.2   c0.1,0,0.2,0.2,0.2,0.5c0,0.2,0,0.5,0,0.7c0,0,0,0.1,0.1,0.1c0,0,0.1-0.1,0.1-0.1c0.8-0.9,1.7-1.3,2.6-1.3c1.2,0,2.2,0.5,3,1.4   C254.4,42.6,254.7,43.6,254.7,44.8z M252.6,44.8c0-0.7-0.2-1.4-0.7-1.9c-0.5-0.6-1.1-0.9-1.8-0.9c-0.7,0-1.3,0.3-1.7,0.9   c-0.4,0.5-0.6,1.2-0.6,1.9c0,0.7,0.2,1.4,0.6,1.9c0.5,0.6,1.1,0.9,1.8,0.9c0.7,0,1.3-0.3,1.7-0.9C252.4,46.1,252.6,45.5,252.6,44.8   z"></path>
	<path class="st8" d="M261.3,40.7c0,0.7,0,1.3-0.1,1.8c0,0.1-0.1,0.2-0.2,0.2c-0.1,0-0.3,0-0.6,0c-0.3,0-0.5,0-0.6,0   c-0.8,0-1.2,0.2-1.5,0.6c-0.1,0.3-0.2,0.8-0.2,1.6v1c0,0.3,0,0.9,0,1.5c0,0.7,0,1.2,0,1.5c0,0.2-0.1,0.2-0.2,0.2   c-0.2,0-0.5,0-0.9,0s-0.7,0-0.9,0c-0.1,0-0.2-0.1-0.2-0.2c0-0.5,0-1.2,0-2.2s0-1.7,0-2.2c0-1.5-0.1-2.7-0.4-3.6c0,0,0-0.1,0-0.1   c0-0.1,0-0.1,0.1-0.2c0.2,0,0.5-0.1,0.9-0.1c0.7-0.1,1-0.2,0.9-0.2c0.1,0,0.2,0.2,0.2,0.5s0.1,0.5,0.2,0.5c0,0,0,0,0,0   c0.2-0.2,0.5-0.3,0.7-0.5c0.3-0.2,0.5-0.3,0.8-0.4c0.2-0.1,0.5-0.1,0.9-0.1C261.1,40.5,261.3,40.6,261.3,40.7z"></path>
	<path class="st8" d="M270,44.3c0,0.4-0.2,0.7-0.6,0.9c-0.3,0.1-2.1,0.3-5.6,0.5c0.1,0.5,0.4,1,0.9,1.4c0.5,0.4,1,0.5,1.6,0.5   c1,0,1.8-0.3,2.6-0.9c0.1-0.1,0.2-0.2,0.3-0.2c0,0,0.1,0,0.1,0c0,0,0.1,0.2,0.3,0.6c0.2,0.4,0.3,0.6,0.3,0.7c0,0,0,0.1-0.1,0.2   c-0.9,0.9-2,1.4-3.4,1.4c-1.4,0-2.5-0.4-3.4-1.3c-0.8-0.8-1.2-2-1.2-3.3c0-1.2,0.4-2.3,1.2-3.3c0.8-1,1.9-1.4,3.1-1.4   c1.1,0,2.1,0.4,2.8,1.2C269.6,42.2,270,43.2,270,44.3z M267.8,43.8c0-0.5-0.2-0.9-0.6-1.3s-0.8-0.6-1.3-0.6c-0.6,0-1,0.2-1.5,0.7   s-0.6,0.9-0.6,1.5c0,0.1,0.1,0.2,0.3,0.2c0.9,0,2-0.1,3.2-0.3C267.7,43.9,267.8,43.9,267.8,43.8z"></path>
	<path class="st8" d="M275.5,46.4c0,0.9-0.4,1.6-1.1,2.2c-0.7,0.5-1.4,0.7-2.4,0.7c-0.4,0-0.6,0-0.6,0c-0.1,0-0.2-0.2-0.2-0.4   c0-0.1,0-0.3,0-0.6c0-0.3,0-0.5,0-0.6c0-0.1,0.1-0.1,0.2-0.2c0.1,0,0.2,0,0.3,0c0.2,0,0.3,0,0.3,0c1.1,0,1.7-0.3,1.7-1   c0-0.3-0.3-0.6-0.8-0.9c-0.8-0.4-1.3-0.7-1.4-0.8c-0.5-0.4-0.8-1-0.8-1.7c0-0.9,0.3-1.6,1-2.1c0.6-0.5,1.4-0.7,2.3-0.7   c0.1,0,0.1,0,0.2,0.1c0,0.1,0.1,0.3,0.2,0.7c0.1,0.4,0.2,0.7,0.2,0.7c0,0.1-0.1,0.1-0.2,0.1c-0.4,0.1-0.8,0.1-1.2,0.2   c-0.5,0.1-0.7,0.4-0.7,0.8c0,0.3,0.2,0.5,0.7,0.8c0.7,0.4,1.2,0.7,1.4,0.9C275.3,45.1,275.5,45.7,275.5,46.4z"></path>
	<path class="st8" d="M284.5,44.3c0,0.4-0.2,0.7-0.6,0.9c-0.3,0.1-2.1,0.3-5.6,0.5c0.1,0.5,0.4,1,0.9,1.4c0.5,0.4,1,0.5,1.6,0.5   c1,0,1.8-0.3,2.6-0.9c0.1-0.1,0.2-0.2,0.3-0.2c0,0,0.1,0,0.1,0c0,0,0.1,0.2,0.3,0.6c0.2,0.4,0.3,0.6,0.3,0.7c0,0,0,0.1-0.1,0.2   c-0.9,0.9-2,1.4-3.4,1.4c-1.4,0-2.5-0.4-3.4-1.3c-0.8-0.8-1.2-2-1.2-3.3c0-1.2,0.4-2.3,1.2-3.3c0.8-1,1.9-1.4,3.1-1.4   c1.1,0,2.1,0.4,2.8,1.2C284.1,42.2,284.5,43.2,284.5,44.3z M282.3,43.8c0-0.5-0.2-0.9-0.6-1.3s-0.8-0.6-1.3-0.6   c-0.6,0-1,0.2-1.5,0.7s-0.6,0.9-0.6,1.5c0,0.1,0.1,0.2,0.3,0.2c0.9,0,2-0.1,3.2-0.3C282.2,43.9,282.3,43.9,282.3,43.8z"></path>
	<path class="st8" d="M293.7,49c0,0.1-0.1,0.2-0.2,0.2c-0.2,0-0.5,0-0.9,0s-0.7,0-0.9,0c-0.1,0-0.2-0.1-0.2-0.3c0-0.3,0-0.7,0-1.3   c0-0.6,0-1.1,0-1.4c0-0.2,0-0.6,0-1.1c0-0.5,0-0.8,0-1.1c0-0.7-0.1-1.2-0.3-1.5c-0.2-0.3-0.7-0.5-1.3-0.5c-0.3,0-0.7,0.2-1.3,0.5   c-0.6,0.4-0.9,0.7-0.9,1V49c0,0.2-0.1,0.2-0.2,0.2c-0.2,0-0.5,0-0.9,0s-0.7,0-0.9,0c-0.1,0-0.2-0.1-0.2-0.2c0-0.5,0-1.2,0-2.1   c0-1,0-1.7,0-2.2c0-1.3-0.1-2.5-0.4-3.6c0-0.1,0-0.1,0-0.1c0-0.1,0-0.1,0.1-0.1c0,0,0.4-0.1,1-0.2c0.6-0.1,1-0.2,1-0.2   c0,0,0.1,0,0.1,0.1c0,0.4,0.1,0.8,0.2,1.1c0.3-0.2,0.7-0.6,1.2-0.9c0.6-0.4,1.2-0.6,1.8-0.6c1.1,0,1.9,0.3,2.3,1   c0.3,0.5,0.5,1.3,0.5,2.3c0,0.2,0,0.5,0,0.9s0,0.7,0,0.9c0,0.4,0,1,0,1.8C293.7,48,293.7,48.6,293.7,49z"></path>
	<path class="st8" d="M301.8,41c0,0.1-0.1,0.4-0.2,0.9s-0.2,0.7-0.3,0.7c-0.3-0.1-0.5-0.2-0.8-0.4c-0.3-0.1-0.6-0.2-0.9-0.2   c-0.7,0-1.4,0.3-1.9,0.8S297,44,297,44.8c0,0.7,0.2,1.4,0.7,1.9c0.5,0.6,1.1,0.8,1.9,0.8c0.4,0,0.8-0.1,1.2-0.3s0.6-0.3,0.5-0.3   c0.1,0,0.2,0.3,0.3,0.8c0.1,0.5,0.1,0.8,0.1,1c0,0.2-0.4,0.4-1.1,0.6c-0.6,0.2-1,0.2-1.3,0.2c-1.2,0-2.3-0.5-3.2-1.4   c-0.8-0.9-1.3-2-1.3-3.2c0-1.3,0.4-2.4,1.2-3.3c0.8-0.9,1.9-1.4,3.2-1.4c0.8,0,1.6,0.2,2.3,0.6C301.7,40.9,301.8,40.9,301.8,41z"></path>
	<path class="st8" d="M310.6,44.3c0,0.4-0.2,0.7-0.6,0.9c-0.3,0.1-2.1,0.3-5.6,0.5c0.1,0.5,0.4,1,0.9,1.4c0.5,0.4,1,0.5,1.6,0.5   c1,0,1.8-0.3,2.6-0.9c0.1-0.1,0.2-0.2,0.3-0.2c0,0,0.1,0,0.1,0c0,0,0.1,0.2,0.3,0.6c0.2,0.4,0.3,0.6,0.3,0.7c0,0,0,0.1-0.1,0.2   c-0.9,0.9-2,1.4-3.4,1.4c-1.4,0-2.5-0.4-3.4-1.3c-0.8-0.8-1.2-2-1.2-3.3c0-1.2,0.4-2.3,1.2-3.3c0.8-1,1.9-1.4,3.1-1.4   c1.1,0,2.1,0.4,2.8,1.2C310.2,42.2,310.6,43.2,310.6,44.3z M308.4,43.8c0-0.5-0.2-0.9-0.6-1.3s-0.8-0.6-1.3-0.6   c-0.6,0-1,0.2-1.5,0.7s-0.6,0.9-0.6,1.5c0,0.1,0.1,0.2,0.3,0.2c0.9,0,2-0.1,3.2-0.3C308.2,43.9,308.4,43.9,308.4,43.8z"></path>
</g>
</svg>